HIERARCHY
ROOT Hips
{
	OFFSET 0.000000 0.000000 0.000000
	CHANNELS 6 Xposition Yposition Zposition Zrotation Yrotation Xrotation 
	JOINT LHipJoint
	{
		OFFSET 0.000000 0.000000 0.000000
		CHANNELS 3 Zrotation Yrotation Xrotation
		JOINT LeftUpLeg
		{
			OFFSET 1.363060 -1.794630 0.839290
			CHANNELS 3 Zrotation Yrotation Xrotation
			JOINT LeftLeg
			{
				OFFSET 2.448110 -6.726130 0.000000
				CHANNELS 3 Zrotation Yrotation Xrotation
				JOINT LeftFoot
				{
					OFFSET 2.562200 -7.039590 0.000000
					CHANNELS 3 Zrotation Yrotation Xrotation
					JOINT LeftToeBase
					{
						OFFSET 0.157640 -0.433110 2.322550
						CHANNELS 3 Zrotation Yrotation Xrotation
						End Site
						{
							OFFSET 0.000000 0.000000 0.000000
						}
					}
				}
			}
		}
	}
	JOINT RHipJoint
	{
		OFFSET 0.000000 0.000000 0.000000
		CHANNELS 3 Zrotation Yrotation Xrotation
		JOINT RightUpLeg
		{
			OFFSET -1.305520 -1.794630 0.839290
			CHANNELS 3 Zrotation Yrotation Xrotation
			JOINT RightLeg
			{
				OFFSET -2.542530 -6.985550 0.000000
				CHANNELS 3 Zrotation Yrotation Xrotation
				JOINT RightFoot
				{
					OFFSET -2.568260 -7.056230 0.000000
					CHANNELS 3 Zrotation Yrotation Xrotation
					JOINT RightToeBase
					{
						OFFSET -0.164730 -0.452590 2.363150
						CHANNELS 3 Zrotation Yrotation Xrotation
						End Site
						{
							OFFSET 0.000000 0.000000 0.000000
						}
					}
				}
			}
		}
	}
	JOINT LowerBack
	{
		OFFSET 0.000000 0.000000 0.000000
		CHANNELS 3 Zrotation Yrotation Xrotation
		JOINT Spine
		{
			OFFSET 0.028270 2.035590 -0.193380
			CHANNELS 3 Zrotation Yrotation Xrotation
			JOINT Spine1
			{
				OFFSET 0.056720 2.048850 -0.042750
				CHANNELS 3 Zrotation Yrotation Xrotation
				JOINT Neck
				{
					OFFSET 0.000000 0.000000 0.000000
					CHANNELS 3 Zrotation Yrotation Xrotation
					JOINT Neck1
					{
						OFFSET -0.054170 1.746240 0.172020
						CHANNELS 3 Zrotation Yrotation Xrotation
						JOINT Head
						{
							OFFSET 0.104070 1.761360 -0.123970
							CHANNELS 3 Zrotation Yrotation Xrotation
							End Site
							{
								OFFSET 0.000000 0.000000 0.000000
							}
						}
					}
				}
				JOINT LeftShoulder
				{
					OFFSET 0.000000 0.000000 0.000000
					CHANNELS 3 Zrotation Yrotation Xrotation
					JOINT LeftArm
					{
						OFFSET 3.362410 1.200890 -0.311210
						CHANNELS 3 Zrotation Yrotation Xrotation
						JOINT LeftForeArm
						{
							OFFSET 4.983000 -0.000000 -0.000000
							CHANNELS 3 Zrotation Yrotation Xrotation
							JOINT LeftHand
							{
								OFFSET 3.483560 -0.000000 -0.000000
								CHANNELS 3 Zrotation Yrotation Xrotation
								JOINT LeftFingerBase
								{
									OFFSET 0.000000 0.000000 0.000000
									CHANNELS 3 Zrotation Yrotation Xrotation
									JOINT LeftHandIndex1
									{
										OFFSET 0.715260 -0.000000 -0.000000
										CHANNELS 3 Zrotation Yrotation Xrotation
										End Site
										{
											OFFSET 0.000000 0.000000 0.000000
										}
									}
								}
								JOINT LThumb
								{
									OFFSET 0.000000 0.000000 0.000000
									CHANNELS 3 Zrotation Yrotation Xrotation
									End Site
									{
										OFFSET 0.000000 0.000000 0.000000
									}
								}
							}
						}
					}
				}
				JOINT RightShoulder
				{
					OFFSET 0.000000 0.000000 0.000000
					CHANNELS 3 Zrotation Yrotation Xrotation
					JOINT RightArm
					{
						OFFSET -3.136600 1.374050 -0.404650
						CHANNELS 3 Zrotation Yrotation Xrotation
						JOINT RightForeArm
						{
							OFFSET -5.241900 -0.000000 -0.000000
							CHANNELS 3 Zrotation Yrotation Xrotation
							JOINT RightHand
							{
								OFFSET -3.444170 -0.000000 -0.000000
								CHANNELS 3 Zrotation Yrotation Xrotation
								JOINT RightFingerBase
								{
									OFFSET 0.000000 0.000000 0.000000
									CHANNELS 3 Zrotation Yrotation Xrotation
									JOINT RightHandIndex1
									{
										OFFSET -0.622530 -0.000000 -0.000000
										CHANNELS 3 Zrotation Yrotation Xrotation
										End Site
										{
											OFFSET 0.000000 0.000000 0.000000
										}
									}
								}
								JOINT RThumb
								{
									OFFSET 0.000000 0.000000 0.000000
									CHANNELS 3 Zrotation Yrotation Xrotation
									End Site
									{
										OFFSET 0.000000 0.000000 0.000000
									}
								}
							}
						}
					}
				}
			}
		}
	}
}
MOTION
Frames: 12
Frame Time: 0.008333
-11.370733 17.092268 -2.135023 -46.620025 89.498806 -29.932690 -8.940220 0.514654 3.915681 -7.288573 -5.179827 -38.877860 -2.386990 -0.244166 14.620148 0.423884 1.856475 -0.985148 0.523800 0.000000 -33.157000 10.442310 -3.048630 -0.948776 12.091176 -6.012485 -11.721797 0.764017 -2.488858 37.132236 -0.212848 0.324847 4.339146 -0.098700 0.000000 -73.940300 1.078669 -0.529789 -3.004177 -0.720447 -0.779331 -3.647929 -6.861872 -0.899511 0.260560 10.097577 -2.835956 -6.010642 -4.147702 -0.337514 0.417994 0.000000 0.000000 0.000000 -5.696292 7.317371 2.201281 -67.094960 12.988859 5.507084 -3.465317 -17.945149 0.000958 2.781409 1.705403 0.043865 -0.066576 -0.057948 -0.000000 0.000000 0.000000 0.000000 0.000000 0.000000 0.000000 17.952321 0.862082 1.357181 61.408716 15.170954 6.823568 3.039308 31.656099 0.012332 -1.233515 8.015540 -0.094095 0.098503 -0.149926 0.000000 0.000000 0.000000 0.000000 0.000000 0.000000 0.000000 
-11.137472 17.082173 -2.103425 120.877763 89.710836 137.242730 -8.984771 0.504201 3.839965 -7.840023 -5.368346 -38.107076 -2.356267 -0.164066 15.775259 0.437754 2.081572 -0.747794 0.559699 0.000000 -32.773200 10.723714 -3.110895 -1.119184 11.388767 -7.185488 -13.602545 0.372133 -2.833346 41.338056 -0.421612 -0.608335 6.535195 -0.236500 -0.000000 -74.372300 0.458073 -0.861909 -2.855521 -0.840208 -1.057101 -3.608946 -6.900301 -1.175294 0.279962 10.300885 -3.071680 -6.003685 -4.160461 -0.338586 0.419152 0.000000 0.000000 0.000000 -5.400467 7.022753 2.198942 -66.853112 13.034872 5.988272 -3.495775 -18.396150 0.000639 2.612497 1.799119 0.043577 -0.068893 -0.058133 -0.000000 0.000000 0.000000 0.000000 0.000000 0.000000 0.000000 18.260093 0.406725 1.302040 61.661303 14.523763 6.421176 3.035089 31.251281 0.012092 -1.323120 7.985384 -0.100013 0.098175 -0.144491 0.000000 0.000000 0.000000 0.000000 0.000000 0.000000 0.000000 
-10.906957 17.071540 -2.068205 112.764986 89.040920 128.848259 -9.013948 0.571126 3.757984 -8.459063 -5.406360 -37.382996 -2.335145 -0.065681 16.892650 0.464386 2.330993 -0.605725 0.591499 0.000000 -32.312200 10.970522 -3.029449 -1.266044 10.683313 -8.086694 -15.537712 -0.019379 -3.089017 45.437697 -0.675850 -1.841198 8.406060 -0.503100 0.000000 -73.026499 -0.236475 -1.137569 -2.703467 -0.974871 -1.275588 -3.570650 -6.940981 -1.393340 0.295640 10.503710 -3.316710 -6.015899 -4.172048 -0.339287 0.414543 0.000000 0.000000 0.000000 -5.105431 6.759558 2.190378 -66.557643 13.022488 6.624547 -3.521266 -18.925577 0.000345 2.446916 1.880523 0.042690 -0.071078 -0.058530 -0.000000 0.000000 0.000000 0.000000 0.000000 0.000000 0.000000 18.568081 -0.023566 1.258135 61.966065 13.873541 6.025214 3.030688 30.800644 0.011851 -1.429774 7.960261 -0.107228 0.098002 -0.139525 0.000000 0.000000 0.000000 0.000000 0.000000 0.000000 0.000000 
-10.679576 17.061378 -2.029852 106.576409 88.430940 122.420835 -9.012941 0.671702 3.653486 -9.118846 -5.291525 -36.679495 -2.331605 0.028544 17.917395 0.492402 2.556670 -0.574009 0.613100 0.000000 -31.904000 11.203126 -2.860607 -1.374399 10.030967 -8.708503 -17.525191 -0.376427 -3.289375 49.342533 -0.957442 -3.320558 9.809493 -0.895800 -0.000000 -70.353900 -0.935429 -1.383719 -2.550208 -1.110453 -1.466380 -3.534701 -6.983980 -1.584652 0.300563 10.694756 -3.536345 -6.036482 -4.184074 -0.339876 0.407028 0.000000 0.000000 0.000000 -4.832178 6.499231 2.184993 -66.203822 12.961470 7.365268 -3.541033 -19.522698 0.000099 2.303797 1.942776 0.041605 -0.073000 -0.058876 -0.000000 0.000000 0.000000 0.000000 0.000000 0.000000 0.000000 18.862096 -0.407778 1.224020 62.317991 13.185295 5.598833 3.024634 30.316688 0.011592 -1.538361 7.931626 -0.114445 0.097692 -0.134872 0.000000 0.000000 0.000000 0.000000 0.000000 0.000000 0.000000 
-10.455639 17.052721 -1.988344 100.972265 87.842337 116.618495 -8.983640 0.785569 3.521789 -9.818024 -5.044154 -35.956589 -2.349690 0.106816 18.784682 0.519753 2.757372 -0.662821 0.623500 0.000000 -31.647300 11.422726 -2.634481 -1.444745 9.423477 -9.067244 -19.560630 -0.687348 -3.458692 52.997797 -1.243736 -4.938416 10.640440 -1.369700 -0.000000 -66.827500 -1.642666 -1.611087 -2.391338 -1.247177 -1.639473 -3.496303 -7.027460 -1.758575 0.309508 10.878985 -3.758562 -6.081041 -4.197388 -0.340243 0.391954 0.000000 0.000000 0.000000 -4.576849 6.281928 2.181491 -65.793184 12.779292 8.191880 -3.555639 -20.126020 -0.000064 2.207397 1.974740 0.040622 -0.074704 -0.058913 -0.000000 0.000000 0.000000 0.000000 0.000000 0.000000 0.000000 19.159913 -0.780766 1.196847 62.692737 12.520384 5.213420 3.017138 29.772254 0.011293 -1.669779 7.897703 -0.123160 0.097448 -0.130310 0.000000 0.000000 0.000000 0.000000 0.000000 0.000000 0.000000 
-10.235085 17.046519 -1.945439 95.787068 87.305599 111.281411 -8.942076 0.898439 3.362778 -10.496265 -4.644684 -35.230490 -2.385665 0.166876 19.494399 0.542174 2.899288 -0.892785 0.615800 0.000001 -31.622000 11.614746 -2.378868 -1.467544 8.925532 -9.143335 -21.638340 -0.952208 -3.609727 56.337195 -1.519074 -6.608598 10.885802 -1.868300 -0.000001 -63.079299 -2.293799 -1.815032 -2.239199 -1.372247 -1.794847 -3.461774 -7.071329 -1.915369 0.308061 11.037868 -3.930975 -6.128175 -4.212685 -0.340687 0.375570 0.000000 0.000000 0.000000 -4.373029 6.073838 2.185204 -65.332821 12.523882 9.022379 -3.564258 -20.742105 -0.000132 2.169510 1.980263 0.040140 -0.076091 -0.058590 -0.000000 0.000000 0.000000 0.000000 0.000000 0.000000 0.000000 19.430261 -1.087721 1.179496 63.088531 11.814407 4.791051 3.009359 29.186755 0.010970 -1.789649 7.846452 -0.130578 0.096950 -0.125872 0.000000 0.000000 0.000000 0.000000 0.000000 0.000000 0.000000 
-10.017881 17.043511 -1.901167 90.525263 86.793224 105.906464 -8.889551 1.005347 3.178172 -11.153323 -4.133689 -34.460152 -2.438330 0.204633 20.010630 0.563369 3.012192 -1.254193 0.594000 -0.000000 -31.844700 11.782242 -2.105273 -1.448439 8.502971 -8.968212 -23.744741 -1.175813 -3.751751 59.321698 -1.767240 -8.196906 10.552501 -2.309400 -0.000001 -59.405000 -2.906294 -1.997062 -2.089031 -1.488945 -1.932244 -3.426154 -7.113895 -2.054228 0.312476 11.180861 -4.088095 -6.193014 -4.230093 -0.341041 0.353432 0.000000 0.000000 0.000000 -4.203905 5.919965 2.191995 -64.838254 12.125281 9.834290 -3.568880 -21.307798 -0.000097 2.205590 1.957350 0.040363 -0.077309 -0.057704 -0.000000 0.000000 0.000000 0.000000 0.000000 0.000000 0.000000 19.694021 -1.366276 1.168931 63.480780 11.130022 4.401788 3.002421 28.533428 0.010615 -1.913442 7.773675 -0.137799 0.096424 -0.121360 -0.000000 0.000000 0.000000 0.000000 0.000000 0.000000 0.000000 
-9.803607 17.044209 -1.857452 85.208791 86.331349 100.515799 -8.844706 1.096370 2.971503 -11.730790 -3.510708 -33.660992 -2.499398 0.221946 20.361499 0.582245 3.083150 -1.743029 0.555800 0.000000 -32.313200 11.909429 -1.833442 -1.383224 8.202801 -8.543085 -25.864053 -1.360705 -3.885891 61.898018 -1.978738 -9.609276 9.703812 -2.631900 0.000000 -55.987700 -3.425326 -2.152333 -1.951254 -1.586438 -2.050389 -3.394217 -7.154386 -2.174021 0.313452 11.293350 -4.198231 -6.258489 -4.249415 -0.341496 0.330717 0.000000 0.000000 0.000000 -4.091946 5.792495 2.204213 -64.328173 11.626611 10.556838 -3.569623 -21.827938 0.000023 2.315762 1.915316 0.041386 -0.078336 -0.056240 -0.000000 0.000000 0.000000 0.000000 0.000000 0.000000 0.000000 19.924736 -1.583991 1.166862 63.863935 10.426088 3.990540 2.998893 27.822754 0.010254 -2.012113 7.670754 -0.142622 0.095716 -0.116787 -0.000000 0.000000 0.000000 0.000000 0.000000 0.000000 0.000000 
-9.591901 17.048824 -1.814478 79.698107 85.893218 94.957734 -8.807329 1.171565 2.747424 -12.228238 -2.826277 -32.793909 -2.564292 0.218192 20.531996 0.604246 3.155137 -2.326076 0.508500 0.000000 -32.974400 11.999780 -1.567389 -1.280549 7.985696 -7.911291 -27.965816 -1.507734 -4.011398 64.028751 -2.142972 -10.734133 8.411633 -2.782900 0.000000 -52.830400 -3.866524 -2.281242 -1.820528 -1.667864 -2.148050 -3.362346 -7.191486 -2.273097 0.321816 11.384158 -4.285140 -6.332185 -4.270121 -0.341918 0.305205 0.000000 0.000000 0.000000 -4.016801 5.719695 2.218193 -63.825341 10.987217 11.171442 -3.568942 -22.261605 0.000203 2.499169 1.858777 0.043309 -0.079326 -0.054083 -0.000000 0.000000 0.000000 0.000000 0.000000 0.000000 0.000000 20.136248 -1.767037 1.170238 64.221503 9.738307 3.592225 3.000005 27.043686 0.009891 -2.085652 7.531024 -0.144848 0.094938 -0.112019 -0.000000 0.000000 0.000000 0.000000 0.000000 0.000000 0.000000 
-9.382082 17.057369 -1.773756 74.044574 85.489986 89.280045 -8.792558 1.225565 2.512389 -12.604718 -2.097408 -31.868159 -2.624072 0.196824 20.554039 0.630214 3.234488 -2.977388 0.453500 0.000000 -33.766200 12.040028 -1.320080 -1.142366 7.875335 -7.097027 -30.021814 -1.612885 -4.123164 65.668459 -2.253917 -11.506287 6.780262 -2.749999 0.000000 -49.870401 -4.194364 -2.381688 -1.703748 -1.726316 -2.225268 -3.333776 -7.224318 -2.351547 0.331553 11.444255 -4.333743 -6.401285 -4.291455 -0.342409 0.280925 0.000000 0.000000 0.000000 -3.989130 5.676931 2.234197 -63.349916 10.249807 11.634170 -3.567111 -22.622975 0.000405 2.743018 1.797282 0.045835 -0.080273 -0.051282 -0.000000 0.000000 0.000000 0.000000 0.000000 0.000000 0.000000 20.309802 -1.901491 1.179646 64.547683 9.040931 3.169193 3.008496 26.205545 0.009553 -2.111901 7.349667 -0.142977 0.094050 -0.107070 -0.000000 0.000000 0.000000 0.000000 0.000000 0.000000 0.000000 
-9.173511 17.069542 -1.735830 68.282274 85.105975 83.507253 -8.803044 1.260008 2.273159 -12.855307 -1.362840 -30.866997 -2.673063 0.160278 20.434627 0.663617 3.353178 -3.656966 0.395900 0.000000 -34.604800 12.028925 -1.094953 -0.977344 7.851995 -6.147741 -31.996791 -1.670729 -4.215914 66.783155 -2.306561 -11.875864 4.926562 -2.548500 -0.000000 -47.034700 -4.411392 -2.454497 -1.599464 -1.762582 -2.282383 -3.307989 -7.252244 -2.409547 0.344376 11.476588 -4.352581 -6.463650 -4.312610 -0.342939 0.258644 0.000000 0.000000 0.000000 -3.999308 5.661291 2.249978 -62.919653 9.425811 11.931831 -3.564975 -22.915175 0.000591 3.032866 1.735796 0.048761 -0.081224 -0.047873 -0.000000 0.000000 0.000000 0.000000 0.000000 0.000000 0.000000 20.446578 -1.998189 1.193807 64.834008 8.339062 2.719443 3.025963 25.311951 0.009246 -2.082003 7.123314 -0.136608 0.093107 -0.101910 -0.000000 0.000000 0.000000 0.000000 0.000000 0.000000 0.000000 
-8.965385 17.084854 -1.701198 62.497355 84.734044 77.720357 -8.842464 1.277261 2.037697 -12.974226 -0.650636 -29.792055 -2.706283 0.112262 20.192013 0.706088 3.530633 -4.329420 0.338700 0.000000 -35.409600 11.963377 -0.895451 -0.792407 7.910274 -5.109573 -33.861723 -1.675480 -4.283509 67.345087 -2.300541 -11.836395 2.987387 -2.226200 0.000000 -44.306300 -4.513143 -2.501138 -1.510751 -1.776115 -2.321044 -3.286232 -7.274839 -2.448724 0.358392 11.480825 -4.344632 -6.513968 -4.332624 -0.343511 0.240178 0.000000 0.000000 0.000000 -4.043473 5.657432 2.263981 -62.546350 8.549724 12.057371 -3.562315 -23.161818 0.000730 3.349817 1.678312 0.051885 -0.082170 -0.043961 -0.000000 0.000000 0.000000 0.000000 0.000000 0.000000 0.000000 20.541524 -2.062247 1.212147 65.076991 7.626064 2.229371 3.054045 24.371325 0.008981 -1.987306 6.852050 -0.125540 0.092163 -0.096554 -0.000000 0.000000 0.000000 0.000000 0.000000 0.000000 0.000000 
